<svg height="216" viewBox="0 0 362 216" width="362" xmlns="http://www.w3.org/2000/svg"><g fill="none" fill-rule="evenodd"><path d="m0 0h362v216h-362z" fill="#d7eae9"/><path d="m181.69 66.48c5.226693 0 9.687982.8399916 13.384 2.52s6.477324 3.9386525 8.344 6.776 2.8 5.9733162 2.8 9.408c0 3.0613486-.541328 5.6746558-1.624 7.84s-2.370659 3.9199933-3.864 5.264-3.471988 2.911991-5.936 4.704c-2.986682 2.01601-5.189326 3.826659-6.608 5.432s-2.128 3.677321-2.128 6.216v2.8h-16.128v-3.472c0-3.509351.541328-6.477321 1.624-8.904s2.389326-4.33066 3.92-5.712c1.530674-1.3813402 3.453322-2.8933251 5.768-4.536 2.240011-1.4933408 3.882661-2.7999944 4.928-3.92s1.568-2.5013251 1.568-4.144c0-2.0160101-.69066-3.5839944-2.072-4.704s-3.303988-1.68-5.768-1.68c-4.704024 0-9.07198 2.2773106-13.104 6.832l-11.312-8.736c6.794701-7.9893733 15.530613-11.984 26.208-11.984zm-3.472 61.152c2.76268 0 5.133323.989323 7.112 2.968s2.968 4.34932 2.968 7.112c0 2.837348-.989323 5.245323-2.968 7.224s-4.34932 2.968-7.112 2.968-5.133323-.989323-7.112-2.968-2.968-4.386652-2.968-7.224c0-2.76268.989323-5.133323 2.968-7.112s4.34932-2.968 7.112-2.968z" fill="#1fa19c"/></g></svg>